<svg xmlns="http://www.w3.org/2000/svg" viewBox="0 0 100 100" fill="none">
  <rect width="100" height="100" rx="20" fill="#3DDC84"/>
  <g transform="translate(50,50)">
    <!-- Head -->
    <path d="M-22,-10 Q-22,-28 0,-28 Q22,-28 22,-10 Z" fill="white"/>
    <!-- Eyes -->
    <circle cx="-10" cy="-18" r="2.5" fill="#3DDC84"/>
    <circle cx="10" cy="-18" r="2.5" fill="#3DDC84"/>
    <!-- Antennae -->
    <line x1="-10" y1="-28" x2="-16" y2="-38" stroke="white" stroke-width="2.5" stroke-linecap="round"/>
    <line x1="10" y1="-28" x2="16" y2="-38" stroke="white" stroke-width="2.5" stroke-linecap="round"/>
    <!-- Body -->
    <rect x="-22" y="-8" width="44" height="32" rx="4" fill="white"/>
    <!-- Arms -->
    <rect x="-32" y="-6" width="8" height="24" rx="4" fill="white"/>
    <rect x="24" y="-6" width="8" height="24" rx="4" fill="white"/>
    <!-- Legs -->
    <rect x="-16" y="24" width="8" height="16" rx="4" fill="white"/>
    <rect x="8" y="24" width="8" height="16" rx="4" fill="white"/>
    <!-- Pilot goggles -->
    <ellipse cx="-10" cy="-18" rx="7" ry="5" fill="none" stroke="#FFD700" stroke-width="1.5"/>
    <ellipse cx="10" cy="-18" rx="7" ry="5" fill="none" stroke="#FFD700" stroke-width="1.5"/>
    <line x1="-3" y1="-18" x2="3" y2="-18" stroke="#FFD700" stroke-width="1.5"/>
  </g>
</svg>
